<?xml version="1.0" encoding="utf-8"?>
<!-- Generator: Adobe Illustrator 25.2.1, SVG Export Plug-In . SVG Version: 6.00 Build 0)  -->
<svg version="1.1" id="Layer_1" xmlns="http://www.w3.org/2000/svg" xmlns:xlink="http://www.w3.org/1999/xlink" x="0px" y="0px"
	 viewBox="0 0 1502.2 612.6" style="enable-background:new 0 0 1502.2 612.6;" xml:space="preserve">
<style type="text/css">
	.st0{fill:#6100DC;}
</style>
<g>
	<rect x="1245.9" y="118.8" class="st0" width="45.9" height="291.4"/>
	<path class="st0" d="M103.2,222.2L103.2,222.2c4.9-11.7-0.7-25.1-12.4-30l-59.1-24.5c-11.7-4.8-25.1,0.7-30,12.4l0,0
		c-4.8,11.7,0.7,25.1,12.4,30l59.1,24.5C85,239.5,98.4,233.9,103.2,222.2z"/>
	<path class="st0" d="M222.2,103.2L222.2,103.2c11.7-4.8,17.3-18.3,12.4-30l-24.5-59.1c-4.8-11.7-18.3-17.3-30-12.4l0,0
		c-11.7,4.8-17.3,18.3-12.4,30l24.5,59.1C197.1,102.5,210.5,108.1,222.2,103.2z"/>
	<path class="st0" d="M103.2,390.4L103.2,390.4c-4.8-11.7-18.3-17.3-30-12.4l-59.1,24.5c-11.7,4.8-17.3,18.3-12.4,30l0,0
		c4.8,11.7,18.3,17.3,30,12.4l59.1-24.5C102.5,415.5,108.1,402.1,103.2,390.4z"/>
	<path class="st0" d="M222.2,509.3L222.2,509.3c-11.7-4.9-25.1,0.7-30,12.4l-24.5,59.1c-4.8,11.7,0.7,25.1,12.4,30h0
		c11.7,4.8,25.1-0.7,30-12.4l24.5-59.1C239.5,527.6,233.9,514.2,222.2,509.3z"/>
	<path class="st0" d="M432.4,1.8L432.4,1.8c-11.7-4.9-25.1,0.7-30,12.4L378,73.3c-4.9,11.7,0.7,25.1,12.4,30l0,0
		c11.7,4.8,25.1-0.7,30-12.4l24.5-59.1C449.7,20,444.1,6.6,432.4,1.8z"/>
	<path class="st0" d="M1502.2,287v6h-45.5v-6.4c0-31.2-14.5-47.1-43.2-47.1c-28.6,0-43.1,15.9-43.1,47.1v123.7h-45.9V286.6
		c0-57.3,32.5-90.2,89-90.2c26.6,0,48.7,7.7,64,22.4C1493.9,234.6,1502.2,257.5,1502.2,287z"/>
	<path class="st0" d="M400.3,349.9c0,38.8-31.9,66.3-93.7,66.3c-68.7,0-94.2-29.5-94.2-62.6c0-1.6,0-3.6,0.4-5.3h45.3v2.1
		c0,17,16.6,30.7,48.5,30.7c30.3,0,48.5-9.7,48.5-29.9c0-43.7-139.8-3.2-139.8-88.9c0-38.8,33.1-65.9,90.1-65.9
		c63.1,0,90.9,27.9,90.9,63.5v4.4H351v-2.4c0-16.6-13.7-30.7-45.7-30.7c-28.7,0-44.8,10.1-44.8,29.5
		C260.5,305.9,400.3,263.8,400.3,349.9z"/>
	<polygon class="st0" points="450.2,202 404.4,202 493.8,412.4 462.7,487.3 508.6,487.3 626.8,202 580.9,202 515,361.1 	"/>
	<path class="st0" d="M681.9,410.5V295.8c0-40.8,17.2-60.6,47.5-60.6c30.3,0,47.6,18.2,47.6,58.6v116.8h45.9V295.8
		c0-40.8,17.3-60.6,47.6-60.6s47.7,18.2,47.5,58.6v116.8h45.9V293.8c0-68.7-33.1-97.4-88.1-97.4c-35.2,0-59.4,12.5-73.1,39.2h-4
		c-13.7-27.5-38.4-39.2-73.9-39.2c-55,0-88.5,30.7-88.5,99.4v114.8H681.9z"/>
	<path class="st0" d="M1106.9,196.4c-61.3,0-110.9,49.7-110.9,111v182.1h45.9v-92.1c18.3,13.2,40.7,21,65,21
		c61.3,0,111-49.7,111-111C1217.9,246.1,1168.2,196.4,1106.9,196.4z M1106.9,372.5c-35.9,0-65.1-29.2-65.1-65.1
		c0-35.9,29.2-65.1,65.1-65.1c35.9,0,65.1,29.2,65.1,65.1C1172,343.3,1142.8,372.5,1106.9,372.5z"/>
</g>
</svg>
